<?xml version="1.0" standalone="no"?><!DOCTYPE svg PUBLIC "-//W3C//DTD SVG 1.1//EN" "http://www.w3.org/Graphics/SVG/1.1/DTD/svg11.dtd"><svg t="1622598449747" class="icon" viewBox="0 0 1024 1024" version="1.1" xmlns="http://www.w3.org/2000/svg" p-id="1929" xmlns:xlink="http://www.w3.org/1999/xlink" width="200" height="200"><defs><style type="text/css"></style></defs><path d="M732 260.478V711H293.907V260.96c143.565-29.97 294.528-30.453 438.093-0.482zM361.5 612c-9.113 0-16.5 7.387-16.5 16.5s7.387 16.5 16.5 16.5 16.5-7.387 16.5-16.5-7.387-16.5-16.5-16.5z m302 0c-9.113 0-16.5 7.387-16.5 16.5s7.387 16.5 16.5 16.5 16.5-7.387 16.5-16.5-7.387-16.5-16.5-16.5z" fill="#FFC10D" p-id="1930"></path><path d="M813.093 352.565c-9.69 0-17.696 7.878-17.696 17.649v95.07l-28.229 17.649v-236.89c0-7.878-6.214-15.021-14.115-17.649-157.157-35.192-323.16-35.192-480.318 0-7.899 1.786-14.115 8.824-14.115 17.65V482.09l-28.229-17.649v-94.23c0-9.664-7.899-17.649-17.696-17.649S195 360.443 195 370.213v104.839c0 6.197 3.581 11.45 8.847 15.021l55.616 34.35v205.164c0 9.666 7.899 17.65 17.696 17.65h28.229v73.114c0 9.665 7.899 17.649 17.696 17.649h74.154c9.69 0 17.697-7.88 17.697-17.649v-73.115h196.972v73.115c0 9.665 7.9 17.649 17.697 17.649h73.312c9.69 0 17.696-7.88 17.696-17.649v-73.115h28.229c9.69 0 17.696-7.88 17.696-17.649V523.48l55.616-34.351c5.266-3.572 8.847-8.824 8.847-15.021V370.214c-0.212-9.666-8.111-17.65-17.907-17.65z m-81.212 358.429H293.907V260.96c143.99-29.94 294.09-29.94 437.974 0v450.033z m-46.768 90.764h-38.868v-55.466h38.868v55.466z m-305.57 0h-38.868v-55.466h38.869v55.466z" fill="#194F82" p-id="1931"></path><path d="M329 316.665v195.67c0 9.673 7.909 17.665 17.718 17.665h331.564c9.702 0 17.718-7.885 17.718-17.665v-195.67c0-9.673-7.909-17.665-17.718-17.665H346.716c-9.701 0.002-17.716 7.992-17.716 17.665z m332.408 178.111h-130.77V334.33h130.874v160.447h-0.104zM495.205 334.33v160.45h-130.77v-25.55h22.99c9.7 0 17.717-7.885 17.717-17.665 0-9.778-7.908-17.665-17.718-17.665h-22.99v-35.223h58.318c9.702 0 17.718-7.885 17.718-17.665 0-9.672-7.908-17.665-17.718-17.665h-58.318v-29.122l130.77 0.105z" fill="#194F82" p-id="1932"></path><path d="M387.012 469.146H364V495h131.205V333.977L364 334.224v29.82h58.374c9.71 0 17.735 7.862 17.735 17.615 0 9.752-7.916 17.007-17.735 17.007H364V434.4h23.012c9.711 0 17.735 7.863 17.735 17.616-0.106 9.538-8.024 17.13-17.735 17.13zM530 334.33h131.512V495H530z" fill="#24E9E6" p-id="1933"></path><path d="M455.5 596c-9.582 0-17.5 7.85-17.5 17.585v29.83c0 9.629 7.811 17.585 17.5 17.585 9.582 0 17.5-7.85 17.5-17.585v-29.83c0-9.63-7.813-17.585-17.5-17.585zM512.5 596c-9.582 0-17.5 7.85-17.5 17.585v29.83c0 9.629 7.811 17.585 17.5 17.585 9.582 0 17.5-7.85 17.5-17.585v-29.83c0-9.63-7.916-17.585-17.5-17.585zM569.5 596c-9.582 0-17.5 7.85-17.5 17.585v29.83c0 9.629 7.811 17.585 17.5 17.585 9.582 0 17.5-7.85 17.5-17.585v-29.83c-0.105-9.63-7.916-17.585-17.5-17.585zM663.5 579c-27.847 0-50.5 22.653-50.5 50.5s22.653 50.5 50.5 50.5 50.5-22.548 50.5-50.397c0-27.95-22.65-50.603-50.5-50.603z m0 65.358c-8.728 0-15.691-6.961-15.691-15.69 0-8.73 6.961-15.692 15.691-15.692s15.691 6.962 15.691 15.691c-0.104 8.73-7.066 15.691-15.691 15.691zM361.5 579c-27.847 0-50.5 22.653-50.5 50.5s22.653 50.5 50.5 50.5 50.5-22.653 50.5-50.5c-0.831-27.847-22.548-50.5-50.5-50.5z m0 65.358c-8.728 0-15.691-6.961-15.691-15.69 0-8.73 6.961-15.692 15.691-15.692 8.728 0 15.691 6.962 15.691 15.691-0.831 8.73-7.794 15.691-15.691 15.691z" fill="#194F82" p-id="1934"></path></svg>